REM DIRINDEX 1\2,1\3,1\4,1\5
REM DIRNAME cjc004,folder01,folder02,folder03,folder04
TITLE ""
FILE "1Q_t_1901-1910.mp3" MP3
  TRACK 01 AUDIO
    TITLE "3:cjc004_6611"
    INDEX 01 00:00:00
  TRACK 02 AUDIO
    TITLE "0:"
    INDEX 01 00:01:01
  TRACK 03 AUDIO
    TITLE "4:cjc004_6612"
    INDEX 01 00:01:28
  TRACK 04 AUDIO
    TITLE "0:"
    INDEX 01 00:02:47
  TRACK 05 AUDIO
    TITLE "5:cjc004_6613"
    INDEX 01 00:02:69
  TRACK 06 AUDIO
    TITLE "0:"
    INDEX 01 00:07:03
  TRACK 07 AUDIO
    TITLE "3:cjc004_6614"
    INDEX 01 00:07:58
  TRACK 08 AUDIO
    TITLE "0:"
    INDEX 01 00:08:64
  TRACK 09 AUDIO
    TITLE "4:cjc004_6615"
    INDEX 01 00:09:14
  TRACK 10 AUDIO
    TITLE "0:"
    INDEX 01 00:10:29
  TRACK 11 AUDIO
    TITLE "5:cjc004_6616"
    INDEX 01 00:10:51
  TRACK 12 AUDIO
    TITLE "0:"
    INDEX 01 00:15:36
  TRACK 13 AUDIO
    TITLE "3:cjc004_6617"
    INDEX 01 00:16:12
  TRACK 14 AUDIO
    TITLE "0:"
    INDEX 01 00:17:37
  TRACK 15 AUDIO
    TITLE "4:cjc004_6618"
    INDEX 01 00:17:57
  TRACK 16 AUDIO
    TITLE "0:"
    INDEX 01 00:19:05
  TRACK 17 AUDIO
    TITLE "5:cjc004_6619"
    INDEX 01 00:19:28
  TRACK 18 AUDIO
    TITLE "0:"
    INDEX 01 00:24:59
  TRACK 19 AUDIO
    TITLE "3:cjc004_6620"
    INDEX 01 00:25:39
  TRACK 20 AUDIO
    TITLE "0:"
    INDEX 01 00:26:54
  TRACK 21 AUDIO
    TITLE "4:cjc004_6621"
    INDEX 01 00:27:04
  TRACK 22 AUDIO
    TITLE "0:"
    INDEX 01 00:28:31
  TRACK 23 AUDIO
    TITLE "5:cjc004_6622"
    INDEX 01 00:28:47
  TRACK 24 AUDIO
    TITLE "0:"
    INDEX 01 00:32:19
  TRACK 25 AUDIO
    TITLE "3:cjc004_6623"
    INDEX 01 00:32:70
  TRACK 26 AUDIO
    TITLE "0:"
    INDEX 01 00:34:12
  TRACK 27 AUDIO
    TITLE "4:cjc004_6624"
    INDEX 01 00:34:40
  TRACK 28 AUDIO
    TITLE "0:"
    INDEX 01 00:35:70
  TRACK 29 AUDIO
    TITLE "5:cjc004_6625"
    INDEX 01 00:36:17
  TRACK 30 AUDIO
    TITLE "0:"
    INDEX 01 00:41:14
  TRACK 31 AUDIO
    TITLE "3:cjc004_6626"
    INDEX 01 00:41:63
  TRACK 32 AUDIO
    TITLE "0:"
    INDEX 01 00:43:19
  TRACK 33 AUDIO
    TITLE "4:cjc004_6627"
    INDEX 01 00:43:44
  TRACK 34 AUDIO
    TITLE "0:"
    INDEX 01 00:45:10
  TRACK 35 AUDIO
    TITLE "5:cjc004_6628"
    INDEX 01 00:45:37
  TRACK 36 AUDIO
    TITLE "0:"
    INDEX 01 00:49:33
  TRACK 37 AUDIO
    TITLE "3:cjc004_6629"
    INDEX 01 00:50:09
  TRACK 38 AUDIO
    TITLE "0:"
    INDEX 01 00:51:32
  TRACK 39 AUDIO
    TITLE "4:cjc004_6630"
    INDEX 01 00:51:63
  TRACK 40 AUDIO
    TITLE "0:"
    INDEX 01 00:53:33
  TRACK 41 AUDIO
    TITLE "5:cjc004_6631"
    INDEX 01 00:53:55
  TRACK 42 AUDIO
    TITLE "0:"
    INDEX 01 00:58:52
  TRACK 43 AUDIO
    TITLE "3:cjc004_6632"
    INDEX 01 00:59:30
  TRACK 44 AUDIO
    TITLE "0:"
    INDEX 01 01:00:43
  TRACK 45 AUDIO
    TITLE "4:cjc004_6633"
    INDEX 01 01:00:74
  TRACK 46 AUDIO
    TITLE "0:"
    INDEX 01 01:02:12
  TRACK 47 AUDIO
    TITLE "5:cjc004_6634"
    INDEX 01 01:02:36
  TRACK 48 AUDIO
    TITLE "0:"
    INDEX 01 01:07:00
  TRACK 49 AUDIO
    TITLE "3:cjc004_6635"
    INDEX 01 01:07:53
  TRACK 50 AUDIO
    TITLE "0:"
    INDEX 01 01:08:60
  TRACK 51 AUDIO
    TITLE "4:cjc004_6636"
    INDEX 01 01:09:12
  TRACK 52 AUDIO
    TITLE "0:"
    INDEX 01 01:10:26
  TRACK 53 AUDIO
    TITLE "5:cjc004_6637"
    INDEX 01 01:10:55
  TRACK 54 AUDIO
    TITLE "0:"
    INDEX 01 01:14:72
  TRACK 55 AUDIO
    TITLE "3:cjc004_6638"
    INDEX 01 01:15:54
  TRACK 56 AUDIO
    TITLE "0:"
    INDEX 01 01:16:65
  TRACK 57 AUDIO
    TITLE "4:cjc004_6639"
    INDEX 01 01:17:16
  TRACK 58 AUDIO
    TITLE "0:"
    INDEX 01 01:18:47
  TRACK 59 AUDIO
    TITLE "5:cjc004_6640"
    INDEX 01 01:18:66
  TRACK 60 AUDIO
    TITLE "0:"
    INDEX 01 01:24:00
